<?xml version="1.0" encoding="UTF-8"?>
<svg xmlns="http://www.w3.org/2000/svg" width="900" height="360" viewBox="0 0 900 360">
  <defs>
    <linearGradient id="hullGradient" x1="0" x2="1" y1="0" y2="1">
      <stop offset="0" stop-color="#55341f"/>
      <stop offset="0.62" stop-color="#1d1814"/>
      <stop offset="1" stop-color="#0f1112"/>
    </linearGradient>
    <filter id="softShadow" x="-20%" y="-20%" width="140%" height="150%">
      <feDropShadow dx="0" dy="8" stdDeviation="5" flood-color="#000000" flood-opacity="0.32"/>
    </filter>
  </defs>
  <g filter="url(#softShadow)">
    <path d="M 148 232 L 116 202 L 132 242 Z" fill="#ffd76c" stroke="#231812" stroke-width="3"/>
    <path d="M 736 220 L 826 190 L 776 238 Z" fill="#55341f" stroke="#211812" stroke-width="4"/>
    <line x1="246" y1="70" x2="246" y2="222" stroke="#573b26" stroke-width="4" stroke-linecap="round"/><line x1="191" y1="144" x2="306" y2="144" stroke="#6a482d" stroke-width="3" stroke-linecap="round"/><line x1="198" y1="102" x2="298" y2="102" stroke="#765034" stroke-width="2.5" stroke-linecap="round"/><path d="M 204 98 C 217.44 117.2 222.48 148 246 156 C 269.52 148 274.56 117.2 288 98 Z" fill="#efe5c9" stroke="rgba(60,47,32,0.58)" stroke-width="2"/><path d="M 197 142 C 212.68 165.7 218.56 202 246 210 C 273.44 202 279.32 165.7 295 142 Z" fill="#efe5c9" stroke="rgba(60,47,32,0.58)" stroke-width="2"/><path d="M 246 86 C 268 123.62 201.36 184.04 184 200 L 246 186.32 Z" fill="#efe5c9" stroke="rgba(62,48,34,0.55)" stroke-width="2"/><path d="M 246 92 C 268 126.98 294.96 183.16 314 198 L 246 185.28 Z" fill="#efe5c9" stroke="rgba(62,48,34,0.55)" stroke-width="2"/><line x1="428" y1="44" x2="428" y2="222" stroke="#573b26" stroke-width="4" stroke-linecap="round"/><line x1="373" y1="144" x2="488" y2="144" stroke="#6a482d" stroke-width="3" stroke-linecap="round"/><line x1="380" y1="102" x2="480" y2="102" stroke="#765034" stroke-width="2.5" stroke-linecap="round"/><path d="M 386 98 C 399.44 117.2 404.48 148 428 156 C 451.52 148 456.56 117.2 470 98 Z" fill="#efe5c9" stroke="rgba(60,47,32,0.58)" stroke-width="2"/><path d="M 379 142 C 394.68 165.7 400.56 202 428 210 C 455.44 202 461.32 165.7 477 142 Z" fill="#efe5c9" stroke="rgba(60,47,32,0.58)" stroke-width="2"/><path d="M 428 86 C 450 123.62 383.36 184.04 366 200 L 428 186.32 Z" fill="#efe5c9" stroke="rgba(62,48,34,0.55)" stroke-width="2"/><path d="M 428 92 C 450 126.98 476.96 183.16 496 198 L 428 185.28 Z" fill="#efe5c9" stroke="rgba(62,48,34,0.55)" stroke-width="2"/><line x1="614" y1="64" x2="614" y2="222" stroke="#573b26" stroke-width="4" stroke-linecap="round"/><line x1="559" y1="144" x2="674" y2="144" stroke="#6a482d" stroke-width="3" stroke-linecap="round"/><line x1="566" y1="102" x2="666" y2="102" stroke="#765034" stroke-width="2.5" stroke-linecap="round"/><path d="M 572 98 C 585.44 117.2 590.48 148 614 156 C 637.52 148 642.56 117.2 656 98 Z" fill="#efe5c9" stroke="rgba(60,47,32,0.58)" stroke-width="2"/><path d="M 565 142 C 580.68 165.7 586.56 202 614 210 C 641.44 202 647.32 165.7 663 142 Z" fill="#efe5c9" stroke="rgba(60,47,32,0.58)" stroke-width="2"/><path d="M 614 86 C 636 123.62 569.36 184.04 552 200 L 614 186.32 Z" fill="#efe5c9" stroke="rgba(62,48,34,0.55)" stroke-width="2"/><path d="M 614 92 C 636 126.98 662.96 183.16 682 198 L 614 185.28 Z" fill="#efe5c9" stroke="rgba(62,48,34,0.55)" stroke-width="2"/>
    <line x1="246" y1="58" x2="136" y2="232" stroke="rgba(35,28,22,0.46)" stroke-width="1.4" stroke-linecap="round"/><line x1="246" y1="58" x2="742" y2="230" stroke="rgba(35,28,22,0.46)" stroke-width="1.4" stroke-linecap="round"/><line x1="192" y1="104" x2="306" y2="222" stroke="rgba(35,28,22,0.34)" stroke-width="1.2" stroke-linecap="round"/><line x1="304" y1="104" x2="182" y2="222" stroke="rgba(35,28,22,0.34)" stroke-width="1.2" stroke-linecap="round"/><line x1="428" y1="58" x2="136" y2="232" stroke="rgba(35,28,22,0.46)" stroke-width="1.4" stroke-linecap="round"/><line x1="428" y1="58" x2="742" y2="230" stroke="rgba(35,28,22,0.46)" stroke-width="1.4" stroke-linecap="round"/><line x1="374" y1="104" x2="488" y2="222" stroke="rgba(35,28,22,0.34)" stroke-width="1.2" stroke-linecap="round"/><line x1="486" y1="104" x2="364" y2="222" stroke="rgba(35,28,22,0.34)" stroke-width="1.2" stroke-linecap="round"/><line x1="614" y1="58" x2="136" y2="232" stroke="rgba(35,28,22,0.46)" stroke-width="1.4" stroke-linecap="round"/><line x1="614" y1="58" x2="742" y2="230" stroke="rgba(35,28,22,0.46)" stroke-width="1.4" stroke-linecap="round"/><line x1="560" y1="104" x2="674" y2="222" stroke="rgba(35,28,22,0.34)" stroke-width="1.2" stroke-linecap="round"/><line x1="672" y1="104" x2="550" y2="222" stroke="rgba(35,28,22,0.34)" stroke-width="1.2" stroke-linecap="round"/><line x1="132" y1="224" x2="780" y2="224" stroke="rgba(43,31,24,0.62)" stroke-width="2" stroke-linecap="round"/>
    <path d="M 120 224 C 205 202 590 204 738 218 L 800 248 C 718 282 265 284 148 272 C 128 254 116 232 120 224 Z" fill="url(#hullGradient)" stroke="#211812" stroke-width="4"/>
    <path d="M 146 236 C 250 226 640 224 770 241" fill="none" stroke="#d8a83f" stroke-width="10" stroke-linecap="round"/>
    <path d="M 158 258 C 280 251 626 254 748 264" fill="none" stroke="#d8a83f" stroke-width="6" stroke-linecap="round" opacity="0.84"/>
    <rect x="176" y="242" width="10" height="7" rx="1.5" fill="#17120f" stroke="#ffd76c" stroke-width="1.2"/><rect x="198" y="242" width="10" height="7" rx="1.5" fill="#17120f" stroke="#ffd76c" stroke-width="1.2"/><rect x="220" y="242" width="10" height="7" rx="1.5" fill="#17120f" stroke="#ffd76c" stroke-width="1.2"/><rect x="242" y="242" width="10" height="7" rx="1.5" fill="#17120f" stroke="#ffd76c" stroke-width="1.2"/><rect x="264" y="242" width="10" height="7" rx="1.5" fill="#17120f" stroke="#ffd76c" stroke-width="1.2"/><rect x="286" y="242" width="10" height="7" rx="1.5" fill="#17120f" stroke="#ffd76c" stroke-width="1.2"/><rect x="308" y="242" width="10" height="7" rx="1.5" fill="#17120f" stroke="#ffd76c" stroke-width="1.2"/><rect x="330" y="242" width="10" height="7" rx="1.5" fill="#17120f" stroke="#ffd76c" stroke-width="1.2"/><rect x="352" y="242" width="10" height="7" rx="1.5" fill="#17120f" stroke="#ffd76c" stroke-width="1.2"/><rect x="374" y="242" width="10" height="7" rx="1.5" fill="#17120f" stroke="#ffd76c" stroke-width="1.2"/><rect x="396" y="242" width="10" height="7" rx="1.5" fill="#17120f" stroke="#ffd76c" stroke-width="1.2"/><rect x="418" y="242" width="10" height="7" rx="1.5" fill="#17120f" stroke="#ffd76c" stroke-width="1.2"/><rect x="440" y="242" width="10" height="7" rx="1.5" fill="#17120f" stroke="#ffd76c" stroke-width="1.2"/><rect x="462" y="242" width="10" height="7" rx="1.5" fill="#17120f" stroke="#ffd76c" stroke-width="1.2"/><rect x="484" y="242" width="10" height="7" rx="1.5" fill="#17120f" stroke="#ffd76c" stroke-width="1.2"/><rect x="506" y="242" width="10" height="7" rx="1.5" fill="#17120f" stroke="#ffd76c" stroke-width="1.2"/><rect x="528" y="242" width="10" height="7" rx="1.5" fill="#17120f" stroke="#ffd76c" stroke-width="1.2"/><rect x="550" y="242" width="10" height="7" rx="1.5" fill="#17120f" stroke="#ffd76c" stroke-width="1.2"/><rect x="572" y="242" width="10" height="7" rx="1.5" fill="#17120f" stroke="#ffd76c" stroke-width="1.2"/><rect x="594" y="242" width="10" height="7" rx="1.5" fill="#17120f" stroke="#ffd76c" stroke-width="1.2"/><rect x="616" y="242" width="10" height="7" rx="1.5" fill="#17120f" stroke="#ffd76c" stroke-width="1.2"/><rect x="638" y="242" width="10" height="7" rx="1.5" fill="#17120f" stroke="#ffd76c" stroke-width="1.2"/><rect x="660" y="242" width="10" height="7" rx="1.5" fill="#17120f" stroke="#ffd76c" stroke-width="1.2"/><rect x="682" y="242" width="10" height="7" rx="1.5" fill="#17120f" stroke="#ffd76c" stroke-width="1.2"/>
    <rect x="188" y="260" width="10" height="7" rx="1.5" fill="#17120f" stroke="#ffd76c" stroke-width="1.2"/><rect x="211" y="260" width="10" height="7" rx="1.5" fill="#17120f" stroke="#ffd76c" stroke-width="1.2"/><rect x="234" y="260" width="10" height="7" rx="1.5" fill="#17120f" stroke="#ffd76c" stroke-width="1.2"/><rect x="257" y="260" width="10" height="7" rx="1.5" fill="#17120f" stroke="#ffd76c" stroke-width="1.2"/><rect x="280" y="260" width="10" height="7" rx="1.5" fill="#17120f" stroke="#ffd76c" stroke-width="1.2"/><rect x="303" y="260" width="10" height="7" rx="1.5" fill="#17120f" stroke="#ffd76c" stroke-width="1.2"/><rect x="326" y="260" width="10" height="7" rx="1.5" fill="#17120f" stroke="#ffd76c" stroke-width="1.2"/><rect x="349" y="260" width="10" height="7" rx="1.5" fill="#17120f" stroke="#ffd76c" stroke-width="1.2"/><rect x="372" y="260" width="10" height="7" rx="1.5" fill="#17120f" stroke="#ffd76c" stroke-width="1.2"/><rect x="395" y="260" width="10" height="7" rx="1.5" fill="#17120f" stroke="#ffd76c" stroke-width="1.2"/><rect x="418" y="260" width="10" height="7" rx="1.5" fill="#17120f" stroke="#ffd76c" stroke-width="1.2"/><rect x="441" y="260" width="10" height="7" rx="1.5" fill="#17120f" stroke="#ffd76c" stroke-width="1.2"/><rect x="464" y="260" width="10" height="7" rx="1.5" fill="#17120f" stroke="#ffd76c" stroke-width="1.2"/><rect x="487" y="260" width="10" height="7" rx="1.5" fill="#17120f" stroke="#ffd76c" stroke-width="1.2"/><rect x="510" y="260" width="10" height="7" rx="1.5" fill="#17120f" stroke="#ffd76c" stroke-width="1.2"/><rect x="533" y="260" width="10" height="7" rx="1.5" fill="#17120f" stroke="#ffd76c" stroke-width="1.2"/><rect x="556" y="260" width="10" height="7" rx="1.5" fill="#17120f" stroke="#ffd76c" stroke-width="1.2"/><rect x="579" y="260" width="10" height="7" rx="1.5" fill="#17120f" stroke="#ffd76c" stroke-width="1.2"/><rect x="602" y="260" width="10" height="7" rx="1.5" fill="#17120f" stroke="#ffd76c" stroke-width="1.2"/><rect x="625" y="260" width="10" height="7" rx="1.5" fill="#17120f" stroke="#ffd76c" stroke-width="1.2"/><rect x="648" y="260" width="10" height="7" rx="1.5" fill="#17120f" stroke="#ffd76c" stroke-width="1.2"/><rect x="671" y="260" width="10" height="7" rx="1.5" fill="#17120f" stroke="#ffd76c" stroke-width="1.2"/>

    <path d="M 662 218 L 772 218 L 788 244 L 690 240 Z" fill="#1d1814" stroke="#ffd76c" stroke-width="3" opacity="0.96"/>
    <circle cx="700" cy="228" r="5" fill="#ffd76c"/>
    <circle cx="728" cy="229" r="5" fill="#ffd76c"/>
    <circle cx="756" cy="231" r="5" fill="#ffd76c"/>
    <g transform="skewY(-8)"><rect x="774" y="172" width="18" height="24" fill="#b7352d"/><rect x="792" y="172" width="18" height="24" fill="#f6f0df"/><rect x="810" y="172" width="18" height="24" fill="#233c7c"/><path d="M 774 172 H 828 V 196 H 774 Z" fill="none" stroke="rgba(29,24,20,0.56)" stroke-width="1.2"/></g>
    <path d="M 428 42 C 498 36 540 50 588 42" fill="none" stroke="#b7352d" stroke-width="5" stroke-linecap="round"/>
  </g>
</svg>