<?xml version="1.0" encoding="UTF-8"?>
<svg xmlns="http://www.w3.org/2000/svg" width="900" height="360" viewBox="0 0 900 360">
  <defs>
    <linearGradient id="hullGradient" x1="0" x2="1" y1="0" y2="1">
      <stop offset="0" stop-color="#5b3521"/>
      <stop offset="0.62" stop-color="#1d1512"/>
      <stop offset="1" stop-color="#0f1112"/>
    </linearGradient>
    <filter id="softShadow" x="-20%" y="-20%" width="140%" height="150%">
      <feDropShadow dx="0" dy="8" stdDeviation="5" flood-color="#000000" flood-opacity="0.32"/>
    </filter>
  </defs>
  <g filter="url(#softShadow)">
    <path d="M 148 232 L 116 202 L 132 242 Z" fill="#f0c661" stroke="#231812" stroke-width="3"/>
    <path d="M 736 220 L 826 190 L 776 238 Z" fill="#5b3521" stroke="#211812" stroke-width="4"/>
    <line x1="202" y1="58" x2="202" y2="226" stroke="#573b26" stroke-width="4" stroke-linecap="round"/><line x1="147" y1="144" x2="262" y2="144" stroke="#6a482d" stroke-width="3" stroke-linecap="round"/><line x1="154" y1="102" x2="254" y2="102" stroke="#765034" stroke-width="2.5" stroke-linecap="round"/><path d="M 156 98 C 170.72 117.2 176.24 148 202 156 C 227.76 148 233.28 117.2 248 98 Z" fill="#e7dcc1" stroke="rgba(60,47,32,0.58)" stroke-width="2"/><path d="M 148 142 C 165.28 165.7 171.76 202 202 210 C 232.24 202 238.72 165.7 256 142 Z" fill="#e7dcc1" stroke="rgba(60,47,32,0.58)" stroke-width="2"/><path d="M 202 86 C 224 123.62 153.04 184.04 134 200 L 202 186.32 Z" fill="#e7dcc1" stroke="rgba(62,48,34,0.55)" stroke-width="2"/><path d="M 202 92 C 224 126.98 256.72 183.16 278 198 L 202 185.28 Z" fill="#e7dcc1" stroke="rgba(62,48,34,0.55)" stroke-width="2"/><line x1="342" y1="42" x2="342" y2="226" stroke="#573b26" stroke-width="4" stroke-linecap="round"/><line x1="287" y1="144" x2="402" y2="144" stroke="#6a482d" stroke-width="3" stroke-linecap="round"/><line x1="294" y1="102" x2="394" y2="102" stroke="#765034" stroke-width="2.5" stroke-linecap="round"/><path d="M 296 98 C 310.72 117.2 316.24 148 342 156 C 367.76 148 373.28 117.2 388 98 Z" fill="#e7dcc1" stroke="rgba(60,47,32,0.58)" stroke-width="2"/><path d="M 288 142 C 305.28 165.7 311.76 202 342 210 C 372.24 202 378.72 165.7 396 142 Z" fill="#e7dcc1" stroke="rgba(60,47,32,0.58)" stroke-width="2"/><path d="M 342 86 C 364 123.62 293.04 184.04 274 200 L 342 186.32 Z" fill="#e7dcc1" stroke="rgba(62,48,34,0.55)" stroke-width="2"/><path d="M 342 92 C 364 126.98 396.72 183.16 418 198 L 342 185.28 Z" fill="#e7dcc1" stroke="rgba(62,48,34,0.55)" stroke-width="2"/><line x1="486" y1="48" x2="486" y2="226" stroke="#573b26" stroke-width="4" stroke-linecap="round"/><line x1="431" y1="144" x2="546" y2="144" stroke="#6a482d" stroke-width="3" stroke-linecap="round"/><line x1="438" y1="102" x2="538" y2="102" stroke="#765034" stroke-width="2.5" stroke-linecap="round"/><path d="M 440 98 C 454.72 117.2 460.24 148 486 156 C 511.76 148 517.28 117.2 532 98 Z" fill="#e7dcc1" stroke="rgba(60,47,32,0.58)" stroke-width="2"/><path d="M 432 142 C 449.28 165.7 455.76 202 486 210 C 516.24 202 522.72 165.7 540 142 Z" fill="#e7dcc1" stroke="rgba(60,47,32,0.58)" stroke-width="2"/><path d="M 486 86 C 508 123.62 437.04 184.04 418 200 L 486 186.32 Z" fill="#e7dcc1" stroke="rgba(62,48,34,0.55)" stroke-width="2"/><path d="M 486 92 C 508 126.98 540.72 183.16 562 198 L 486 185.28 Z" fill="#e7dcc1" stroke="rgba(62,48,34,0.55)" stroke-width="2"/><line x1="636" y1="70" x2="636" y2="226" stroke="#573b26" stroke-width="4" stroke-linecap="round"/><line x1="581" y1="144" x2="696" y2="144" stroke="#6a482d" stroke-width="3" stroke-linecap="round"/><line x1="588" y1="102" x2="688" y2="102" stroke="#765034" stroke-width="2.5" stroke-linecap="round"/><path d="M 590 98 C 604.72 117.2 610.24 148 636 156 C 661.76 148 667.28 117.2 682 98 Z" fill="#e7dcc1" stroke="rgba(60,47,32,0.58)" stroke-width="2"/><path d="M 582 142 C 599.28 165.7 605.76 202 636 210 C 666.24 202 672.72 165.7 690 142 Z" fill="#e7dcc1" stroke="rgba(60,47,32,0.58)" stroke-width="2"/><path d="M 636 86 C 658 123.62 587.04 184.04 568 200 L 636 186.32 Z" fill="#e7dcc1" stroke="rgba(62,48,34,0.55)" stroke-width="2"/><path d="M 636 92 C 658 126.98 690.72 183.16 712 198 L 636 185.28 Z" fill="#e7dcc1" stroke="rgba(62,48,34,0.55)" stroke-width="2"/>
    <line x1="202" y1="58" x2="136" y2="232" stroke="rgba(35,28,22,0.46)" stroke-width="1.4" stroke-linecap="round"/><line x1="202" y1="58" x2="742" y2="230" stroke="rgba(35,28,22,0.46)" stroke-width="1.4" stroke-linecap="round"/><line x1="148" y1="104" x2="262" y2="222" stroke="rgba(35,28,22,0.34)" stroke-width="1.2" stroke-linecap="round"/><line x1="260" y1="104" x2="138" y2="222" stroke="rgba(35,28,22,0.34)" stroke-width="1.2" stroke-linecap="round"/><line x1="342" y1="58" x2="136" y2="232" stroke="rgba(35,28,22,0.46)" stroke-width="1.4" stroke-linecap="round"/><line x1="342" y1="58" x2="742" y2="230" stroke="rgba(35,28,22,0.46)" stroke-width="1.4" stroke-linecap="round"/><line x1="288" y1="104" x2="402" y2="222" stroke="rgba(35,28,22,0.34)" stroke-width="1.2" stroke-linecap="round"/><line x1="400" y1="104" x2="278" y2="222" stroke="rgba(35,28,22,0.34)" stroke-width="1.2" stroke-linecap="round"/><line x1="486" y1="58" x2="136" y2="232" stroke="rgba(35,28,22,0.46)" stroke-width="1.4" stroke-linecap="round"/><line x1="486" y1="58" x2="742" y2="230" stroke="rgba(35,28,22,0.46)" stroke-width="1.4" stroke-linecap="round"/><line x1="432" y1="104" x2="546" y2="222" stroke="rgba(35,28,22,0.34)" stroke-width="1.2" stroke-linecap="round"/><line x1="544" y1="104" x2="422" y2="222" stroke="rgba(35,28,22,0.34)" stroke-width="1.2" stroke-linecap="round"/><line x1="636" y1="58" x2="136" y2="232" stroke="rgba(35,28,22,0.46)" stroke-width="1.4" stroke-linecap="round"/><line x1="636" y1="58" x2="742" y2="230" stroke="rgba(35,28,22,0.46)" stroke-width="1.4" stroke-linecap="round"/><line x1="582" y1="104" x2="696" y2="222" stroke="rgba(35,28,22,0.34)" stroke-width="1.2" stroke-linecap="round"/><line x1="694" y1="104" x2="572" y2="222" stroke="rgba(35,28,22,0.34)" stroke-width="1.2" stroke-linecap="round"/><line x1="132" y1="224" x2="780" y2="224" stroke="rgba(43,31,24,0.62)" stroke-width="2" stroke-linecap="round"/>
    <path d="M 120 218 C 205 196 590 198 738 212 L 800 242 C 718 290 265 292 148 280 C 128 262 116 240 120 218 Z" fill="url(#hullGradient)" stroke="#211812" stroke-width="4"/>
    <path d="M 146 232 C 250 222 640 220 770 237" fill="none" stroke="#d5a044" stroke-width="12" stroke-linecap="round"/>
    <path d="M 158 254 C 280 247 626 250 748 260" fill="none" stroke="#d5a044" stroke-width="8" stroke-linecap="round" opacity="0.84"/>
    <rect x="176" y="238" width="10" height="7" rx="1.5" fill="#17120f" stroke="#f0c661" stroke-width="1.2"/><rect x="196" y="238" width="10" height="7" rx="1.5" fill="#17120f" stroke="#f0c661" stroke-width="1.2"/><rect x="216" y="238" width="10" height="7" rx="1.5" fill="#17120f" stroke="#f0c661" stroke-width="1.2"/><rect x="236" y="238" width="10" height="7" rx="1.5" fill="#17120f" stroke="#f0c661" stroke-width="1.2"/><rect x="256" y="238" width="10" height="7" rx="1.5" fill="#17120f" stroke="#f0c661" stroke-width="1.2"/><rect x="276" y="238" width="10" height="7" rx="1.5" fill="#17120f" stroke="#f0c661" stroke-width="1.2"/><rect x="296" y="238" width="10" height="7" rx="1.5" fill="#17120f" stroke="#f0c661" stroke-width="1.2"/><rect x="316" y="238" width="10" height="7" rx="1.5" fill="#17120f" stroke="#f0c661" stroke-width="1.2"/><rect x="336" y="238" width="10" height="7" rx="1.5" fill="#17120f" stroke="#f0c661" stroke-width="1.2"/><rect x="356" y="238" width="10" height="7" rx="1.5" fill="#17120f" stroke="#f0c661" stroke-width="1.2"/><rect x="376" y="238" width="10" height="7" rx="1.5" fill="#17120f" stroke="#f0c661" stroke-width="1.2"/><rect x="396" y="238" width="10" height="7" rx="1.5" fill="#17120f" stroke="#f0c661" stroke-width="1.2"/><rect x="416" y="238" width="10" height="7" rx="1.5" fill="#17120f" stroke="#f0c661" stroke-width="1.2"/><rect x="436" y="238" width="10" height="7" rx="1.5" fill="#17120f" stroke="#f0c661" stroke-width="1.2"/><rect x="456" y="238" width="10" height="7" rx="1.5" fill="#17120f" stroke="#f0c661" stroke-width="1.2"/><rect x="476" y="238" width="10" height="7" rx="1.5" fill="#17120f" stroke="#f0c661" stroke-width="1.2"/><rect x="496" y="238" width="10" height="7" rx="1.5" fill="#17120f" stroke="#f0c661" stroke-width="1.2"/><rect x="516" y="238" width="10" height="7" rx="1.5" fill="#17120f" stroke="#f0c661" stroke-width="1.2"/><rect x="536" y="238" width="10" height="7" rx="1.5" fill="#17120f" stroke="#f0c661" stroke-width="1.2"/><rect x="556" y="238" width="10" height="7" rx="1.5" fill="#17120f" stroke="#f0c661" stroke-width="1.2"/><rect x="576" y="238" width="10" height="7" rx="1.5" fill="#17120f" stroke="#f0c661" stroke-width="1.2"/><rect x="596" y="238" width="10" height="7" rx="1.5" fill="#17120f" stroke="#f0c661" stroke-width="1.2"/><rect x="616" y="238" width="10" height="7" rx="1.5" fill="#17120f" stroke="#f0c661" stroke-width="1.2"/><rect x="636" y="238" width="10" height="7" rx="1.5" fill="#17120f" stroke="#f0c661" stroke-width="1.2"/><rect x="656" y="238" width="10" height="7" rx="1.5" fill="#17120f" stroke="#f0c661" stroke-width="1.2"/><rect x="676" y="238" width="10" height="7" rx="1.5" fill="#17120f" stroke="#f0c661" stroke-width="1.2"/><rect x="696" y="238" width="10" height="7" rx="1.5" fill="#17120f" stroke="#f0c661" stroke-width="1.2"/>
    <rect x="188" y="260" width="10" height="7" rx="1.5" fill="#17120f" stroke="#f0c661" stroke-width="1.2"/><rect x="208" y="260" width="10" height="7" rx="1.5" fill="#17120f" stroke="#f0c661" stroke-width="1.2"/><rect x="228" y="260" width="10" height="7" rx="1.5" fill="#17120f" stroke="#f0c661" stroke-width="1.2"/><rect x="248" y="260" width="10" height="7" rx="1.5" fill="#17120f" stroke="#f0c661" stroke-width="1.2"/><rect x="268" y="260" width="10" height="7" rx="1.5" fill="#17120f" stroke="#f0c661" stroke-width="1.2"/><rect x="288" y="260" width="10" height="7" rx="1.5" fill="#17120f" stroke="#f0c661" stroke-width="1.2"/><rect x="308" y="260" width="10" height="7" rx="1.5" fill="#17120f" stroke="#f0c661" stroke-width="1.2"/><rect x="328" y="260" width="10" height="7" rx="1.5" fill="#17120f" stroke="#f0c661" stroke-width="1.2"/><rect x="348" y="260" width="10" height="7" rx="1.5" fill="#17120f" stroke="#f0c661" stroke-width="1.2"/><rect x="368" y="260" width="10" height="7" rx="1.5" fill="#17120f" stroke="#f0c661" stroke-width="1.2"/><rect x="388" y="260" width="10" height="7" rx="1.5" fill="#17120f" stroke="#f0c661" stroke-width="1.2"/><rect x="408" y="260" width="10" height="7" rx="1.5" fill="#17120f" stroke="#f0c661" stroke-width="1.2"/><rect x="428" y="260" width="10" height="7" rx="1.5" fill="#17120f" stroke="#f0c661" stroke-width="1.2"/><rect x="448" y="260" width="10" height="7" rx="1.5" fill="#17120f" stroke="#f0c661" stroke-width="1.2"/><rect x="468" y="260" width="10" height="7" rx="1.5" fill="#17120f" stroke="#f0c661" stroke-width="1.2"/><rect x="488" y="260" width="10" height="7" rx="1.5" fill="#17120f" stroke="#f0c661" stroke-width="1.2"/><rect x="508" y="260" width="10" height="7" rx="1.5" fill="#17120f" stroke="#f0c661" stroke-width="1.2"/><rect x="528" y="260" width="10" height="7" rx="1.5" fill="#17120f" stroke="#f0c661" stroke-width="1.2"/><rect x="548" y="260" width="10" height="7" rx="1.5" fill="#17120f" stroke="#f0c661" stroke-width="1.2"/><rect x="568" y="260" width="10" height="7" rx="1.5" fill="#17120f" stroke="#f0c661" stroke-width="1.2"/><rect x="588" y="260" width="10" height="7" rx="1.5" fill="#17120f" stroke="#f0c661" stroke-width="1.2"/><rect x="608" y="260" width="10" height="7" rx="1.5" fill="#17120f" stroke="#f0c661" stroke-width="1.2"/><rect x="628" y="260" width="10" height="7" rx="1.5" fill="#17120f" stroke="#f0c661" stroke-width="1.2"/><rect x="648" y="260" width="10" height="7" rx="1.5" fill="#17120f" stroke="#f0c661" stroke-width="1.2"/><rect x="668" y="260" width="10" height="7" rx="1.5" fill="#17120f" stroke="#f0c661" stroke-width="1.2"/><rect x="688" y="260" width="10" height="7" rx="1.5" fill="#17120f" stroke="#f0c661" stroke-width="1.2"/>
    <rect x="204" y="277" width="10" height="7" rx="1.5" fill="#17120f" stroke="#f0c661" stroke-width="1.2"/><rect x="224" y="277" width="10" height="7" rx="1.5" fill="#17120f" stroke="#f0c661" stroke-width="1.2"/><rect x="244" y="277" width="10" height="7" rx="1.5" fill="#17120f" stroke="#f0c661" stroke-width="1.2"/><rect x="264" y="277" width="10" height="7" rx="1.5" fill="#17120f" stroke="#f0c661" stroke-width="1.2"/><rect x="284" y="277" width="10" height="7" rx="1.5" fill="#17120f" stroke="#f0c661" stroke-width="1.2"/><rect x="304" y="277" width="10" height="7" rx="1.5" fill="#17120f" stroke="#f0c661" stroke-width="1.2"/><rect x="324" y="277" width="10" height="7" rx="1.5" fill="#17120f" stroke="#f0c661" stroke-width="1.2"/><rect x="344" y="277" width="10" height="7" rx="1.5" fill="#17120f" stroke="#f0c661" stroke-width="1.2"/><rect x="364" y="277" width="10" height="7" rx="1.5" fill="#17120f" stroke="#f0c661" stroke-width="1.2"/><rect x="384" y="277" width="10" height="7" rx="1.5" fill="#17120f" stroke="#f0c661" stroke-width="1.2"/><rect x="404" y="277" width="10" height="7" rx="1.5" fill="#17120f" stroke="#f0c661" stroke-width="1.2"/><rect x="424" y="277" width="10" height="7" rx="1.5" fill="#17120f" stroke="#f0c661" stroke-width="1.2"/><rect x="444" y="277" width="10" height="7" rx="1.5" fill="#17120f" stroke="#f0c661" stroke-width="1.2"/><rect x="464" y="277" width="10" height="7" rx="1.5" fill="#17120f" stroke="#f0c661" stroke-width="1.2"/><rect x="484" y="277" width="10" height="7" rx="1.5" fill="#17120f" stroke="#f0c661" stroke-width="1.2"/><rect x="504" y="277" width="10" height="7" rx="1.5" fill="#17120f" stroke="#f0c661" stroke-width="1.2"/><rect x="524" y="277" width="10" height="7" rx="1.5" fill="#17120f" stroke="#f0c661" stroke-width="1.2"/><rect x="544" y="277" width="10" height="7" rx="1.5" fill="#17120f" stroke="#f0c661" stroke-width="1.2"/><rect x="564" y="277" width="10" height="7" rx="1.5" fill="#17120f" stroke="#f0c661" stroke-width="1.2"/><rect x="584" y="277" width="10" height="7" rx="1.5" fill="#17120f" stroke="#f0c661" stroke-width="1.2"/><rect x="604" y="277" width="10" height="7" rx="1.5" fill="#17120f" stroke="#f0c661" stroke-width="1.2"/><rect x="624" y="277" width="10" height="7" rx="1.5" fill="#17120f" stroke="#f0c661" stroke-width="1.2"/><rect x="644" y="277" width="10" height="7" rx="1.5" fill="#17120f" stroke="#f0c661" stroke-width="1.2"/><rect x="664" y="277" width="10" height="7" rx="1.5" fill="#17120f" stroke="#f0c661" stroke-width="1.2"/>
    <path d="M 662 218 L 772 218 L 788 244 L 690 240 Z" fill="#1d1512" stroke="#f0c661" stroke-width="3" opacity="0.96"/>
    <circle cx="700" cy="228" r="5" fill="#f0c661"/>
    <circle cx="728" cy="229" r="5" fill="#f0c661"/>
    <circle cx="756" cy="231" r="5" fill="#f0c661"/>
    <g transform="skewY(-8)"><rect x="774" y="172" width="18" height="24" fill="#b63a2f"/><rect x="792" y="172" width="18" height="24" fill="#f0c64c"/><rect x="810" y="172" width="18" height="24" fill="#b63a2f"/><path d="M 774 172 H 828 V 196 H 774 Z" fill="none" stroke="rgba(29,24,20,0.56)" stroke-width="1.2"/></g>

  </g>
</svg>